<svg width="49" height="61" viewBox="0 0 49 61" fill="none" xmlns="http://www.w3.org/2000/svg">
<path opacity="0.11" d="M3.51095 60.9724V51.9807L26.7284 30.1436C28.5629 28.488 29.9101 27.0037 30.77 25.6906C31.6299 24.3775 32.2032 23.1786 32.4898 22.0939C32.8338 21.0092 33.0057 20.0101 33.0057 19.0967C33.0057 16.6989 32.1745 14.872 30.512 13.616C28.9068 12.3029 26.5278 11.6464 23.3748 11.6464C20.8524 11.6464 18.502 12.1317 16.3236 13.1022C14.2025 14.0727 12.3966 15.5856 10.9061 17.6409L0.759243 11.1326C3.05233 7.70718 6.26265 4.99539 10.3902 2.99723C14.5177 0.999078 19.2759 0 24.6646 0C29.1362 0 33.0344 0.742172 36.3594 2.22652C39.7417 3.65377 42.3501 5.68048 44.1845 8.30663C46.0763 10.9328 47.0222 14.0727 47.0222 17.7265C47.0222 19.6676 46.7642 21.6087 46.2483 23.5497C45.7897 25.4337 44.8151 27.4319 43.3246 29.5442C41.8914 31.6565 39.7703 34.0258 36.9613 36.6519L17.6994 54.721L15.0337 49.6685H49V60.9724H3.51095Z" fill="white"/>
</svg>
