<svg width="48" height="61" viewBox="0 0 48 61" fill="none" xmlns="http://www.w3.org/2000/svg">
<path opacity="0.11" d="M23.0579 61C18.8722 61 14.7151 60.4576 10.5868 59.3729C6.45845 58.2311 2.96082 56.6326 0.0939102 54.5773L5.51237 43.9586C7.8059 45.6142 10.4721 46.9273 13.5111 47.8978C16.55 48.8683 19.6176 49.3536 22.7138 49.3536C26.2115 49.3536 28.9637 48.6685 30.9705 47.2983C32.9774 45.9282 33.9808 44.0442 33.9808 41.6464C33.9808 39.3628 33.0921 37.5645 31.3146 36.2514C29.5371 34.9383 26.6702 34.2818 22.7138 34.2818H16.3493V25.1188L33.1207 6.19337L34.6689 11.1602H3.10416V0.0276217H45.2478V9.01933L28.5623 27.9448L21.5097 23.9199H25.5521C32.9487 23.9199 38.5392 25.5755 42.3235 28.8867C46.1078 32.198 48 36.4512 48 41.6464C48 45.0147 47.1113 48.1832 45.3338 51.1519C43.5563 54.0635 40.8327 56.4328 37.1631 58.2597C33.4934 60.0866 28.7917 61 23.0579 61Z" fill="white"/>
</svg>
