<svg width="62" height="78" viewBox="0 0 62 78" fill="none" xmlns="http://www.w3.org/2000/svg">
<path d="M3.53654 78V66.4972L33.3761 38.5618C35.7338 36.4438 37.4652 34.5449 38.5704 32.8652C39.6756 31.1854 40.4124 29.6517 40.7808 28.264C41.2228 26.8764 41.4439 25.5983 41.4439 24.4298C41.4439 21.3624 40.3755 19.0253 38.2389 17.4185C36.1759 15.7388 33.1182 14.8989 29.066 14.8989C25.8241 14.8989 22.8033 15.5197 20.0036 16.7612C17.2775 18.0028 14.9566 19.9382 13.041 22.5674L0 14.2416C2.94712 9.85955 7.07308 6.39045 12.3779 3.83427C17.6827 1.27809 23.798 0 30.7237 0C36.4706 0 41.4807 0.949436 45.754 2.84831C50.101 4.67416 53.4534 7.26685 55.8111 10.6264C58.2424 13.986 59.4581 18.0028 59.4581 22.677C59.4581 25.1601 59.1266 27.6433 58.4635 30.1264C57.874 32.5365 56.6215 35.0927 54.7059 37.7949C52.8639 40.4972 50.1379 43.5281 46.5276 46.8876L21.7718 70.0028L18.3458 63.5393H62V78H3.53654Z" fill="#FDCC19"/>
</svg>
