<svg width="62" height="78" viewBox="0 0 62 78" fill="none" xmlns="http://www.w3.org/2000/svg">
<path d="M29.7199 78C24.3028 78 18.9228 77.3062 13.5799 75.9185C8.23698 74.4579 3.71035 72.4129 0 69.7837L7.01257 56.1994C9.98085 58.3174 13.4315 59.9972 17.3645 61.2388C21.2974 62.4803 25.2675 63.1011 29.2747 63.1011C33.8013 63.1011 37.3633 62.2247 39.9605 60.4719C42.5577 58.7191 43.8564 56.309 43.8564 53.2416C43.8564 50.3202 42.7062 48.0197 40.4057 46.3399C38.1053 44.6601 34.395 43.8202 29.2747 43.8202H21.0377V32.0983L42.7433 7.88764L44.7469 14.2416H3.89587V0H58.4381V11.5028L36.8438 35.7135L27.7163 30.5646H32.9479C42.5206 30.5646 49.7558 32.6826 54.6535 36.9185C59.5512 41.1545 62 46.5955 62 53.2416C62 57.5506 60.8498 61.6039 58.5494 65.4017C56.2489 69.1264 52.7241 72.1573 47.9749 74.4944C43.2256 76.8315 37.1406 78 29.7199 78Z" fill="#FDCC19"/>
</svg>
