<svg width="473" height="327" viewBox="0 0 473 327" fill="none" xmlns="http://www.w3.org/2000/svg">
<g filter="url(#filter0_bdiiiii_608_283)">
<rect x="20" y="20" width="413" height="267" rx="31" fill="url(#paint0_linear_608_283)" shape-rendering="crispEdges"/>
</g>
<path d="M414 88.5C414.276 88.5 414.5 88.2761 414.5 88C414.5 87.7239 414.276 87.5 414 87.5V88.5ZM40 88.5H414V87.5H40V88.5Z" fill="white"/>
<circle cx="356.5" cy="238.5" r="19.5" fill="white" fill-opacity="0.8"/>
<circle cx="381.5" cy="238.5" r="19.5" fill="white" fill-opacity="0.8"/>
<path d="M54.036 190V188.096L62.016 180.396C62.7253 179.724 63.248 179.136 63.584 178.632C63.9387 178.109 64.172 177.633 64.284 177.204C64.4147 176.756 64.48 176.327 64.48 175.916C64.48 174.908 64.1253 174.115 63.416 173.536C62.7067 172.957 61.6707 172.668 60.308 172.668C59.2627 172.668 58.32 172.845 57.48 173.2C56.64 173.536 55.912 174.068 55.296 174.796L53.392 173.144C54.1387 172.192 55.1373 171.464 56.388 170.96C57.6573 170.437 59.048 170.176 60.56 170.176C61.9227 170.176 63.108 170.4 64.116 170.848C65.124 171.277 65.8987 171.903 66.44 172.724C67 173.545 67.28 174.516 67.28 175.636C67.28 176.271 67.196 176.896 67.028 177.512C66.86 178.128 66.5427 178.781 66.076 179.472C65.6093 180.163 64.9373 180.937 64.06 181.796L56.948 188.656L56.276 187.564H68.12V190H54.036ZM72.3952 185.184V183.224L82.4193 170.4H85.4432L75.5032 183.224L74.0752 182.776H89.7272V185.184H72.3952ZM83.2872 190V185.184L83.3712 182.776V178.52H86.0033V190H83.2872ZM100.506 190.224C99.125 190.224 97.781 190.009 96.4744 189.58C95.1864 189.151 94.1317 188.572 93.3104 187.844L94.5984 185.632C95.2517 186.248 96.101 186.752 97.1464 187.144C98.1917 187.536 99.3024 187.732 100.478 187.732C101.972 187.732 103.12 187.415 103.922 186.78C104.725 186.145 105.126 185.296 105.126 184.232C105.126 183.504 104.949 182.869 104.594 182.328C104.24 181.787 103.624 181.376 102.746 181.096C101.888 180.797 100.702 180.648 99.1904 180.648H94.7384L95.7744 170.4H106.834V172.836H96.8104L98.2664 171.464L97.4544 179.556L95.9984 178.212H99.7784C101.738 178.212 103.316 178.464 104.51 178.968C105.705 179.472 106.573 180.172 107.114 181.068C107.656 181.945 107.926 182.963 107.926 184.12C107.926 185.24 107.656 186.267 107.114 187.2C106.573 188.115 105.752 188.852 104.65 189.412C103.568 189.953 102.186 190.224 100.506 190.224ZM116.361 190V171.52L117.565 172.836H111.937V170.4H119.133V190H116.361ZM136.231 190V188.096L144.211 180.396C144.921 179.724 145.443 179.136 145.779 178.632C146.134 178.109 146.367 177.633 146.479 177.204C146.61 176.756 146.675 176.327 146.675 175.916C146.675 174.908 146.321 174.115 145.611 173.536C144.902 172.957 143.866 172.668 142.503 172.668C141.458 172.668 140.515 172.845 139.675 173.2C138.835 173.536 138.107 174.068 137.491 174.796L135.587 173.144C136.334 172.192 137.333 171.464 138.583 170.96C139.853 170.437 141.243 170.176 142.755 170.176C144.118 170.176 145.303 170.4 146.311 170.848C147.319 171.277 148.094 171.903 148.635 172.724C149.195 173.545 149.475 174.516 149.475 175.636C149.475 176.271 149.391 176.896 149.223 177.512C149.055 178.128 148.738 178.781 148.271 179.472C147.805 180.163 147.133 180.937 146.255 181.796L139.143 188.656L138.471 187.564H150.315V190H136.231ZM154.591 185.184V183.224L164.615 170.4H167.639L157.699 183.224L156.271 182.776H171.923V185.184H154.591ZM165.483 190V185.184L165.567 182.776V178.52H168.199V190H165.483ZM182.702 190.224C181.32 190.224 179.976 190.009 178.67 189.58C177.382 189.151 176.327 188.572 175.506 187.844L176.794 185.632C177.447 186.248 178.296 186.752 179.342 187.144C180.387 187.536 181.498 187.732 182.674 187.732C184.167 187.732 185.315 187.415 186.118 186.78C186.92 186.145 187.322 185.296 187.322 184.232C187.322 183.504 187.144 182.869 186.79 182.328C186.435 181.787 185.819 181.376 184.942 181.096C184.083 180.797 182.898 180.648 181.386 180.648H176.934L177.97 170.4H189.03V172.836H179.006L180.462 171.464L179.65 179.556L178.194 178.212H181.974C183.934 178.212 185.511 178.464 186.706 178.968C187.9 179.472 188.768 180.172 189.31 181.068C189.851 181.945 190.122 182.963 190.122 184.12C190.122 185.24 189.851 186.267 189.31 187.2C188.768 188.115 187.947 188.852 186.846 189.412C185.763 189.953 184.382 190.224 182.702 190.224ZM203.484 190.224C201.748 190.224 200.264 189.841 199.032 189.076C197.8 188.311 196.857 187.209 196.204 185.772C195.569 184.316 195.252 182.543 195.252 180.452C195.252 178.231 195.644 176.355 196.428 174.824C197.212 173.293 198.304 172.136 199.704 171.352C201.104 170.568 202.709 170.176 204.52 170.176C205.453 170.176 206.34 170.269 207.18 170.456C208.038 170.643 208.776 170.932 209.392 171.324L208.328 173.508C207.824 173.153 207.245 172.911 206.592 172.78C205.957 172.649 205.285 172.584 204.576 172.584C202.578 172.584 200.992 173.209 199.816 174.46C198.64 175.692 198.052 177.531 198.052 179.976C198.052 180.368 198.07 180.835 198.108 181.376C198.145 181.917 198.238 182.449 198.388 182.972L197.436 182.02C197.716 181.161 198.154 180.443 198.752 179.864C199.368 179.267 200.096 178.828 200.936 178.548C201.794 178.249 202.718 178.1 203.708 178.1C205.014 178.1 206.172 178.343 207.18 178.828C208.188 179.313 208.981 180.004 209.56 180.9C210.138 181.777 210.428 182.823 210.428 184.036C210.428 185.287 210.12 186.379 209.504 187.312C208.888 188.245 208.057 188.964 207.012 189.468C205.966 189.972 204.79 190.224 203.484 190.224ZM203.372 187.956C204.23 187.956 204.977 187.797 205.612 187.48C206.265 187.163 206.778 186.724 207.152 186.164C207.525 185.585 207.712 184.913 207.712 184.148C207.712 182.991 207.31 182.076 206.508 181.404C205.705 180.713 204.613 180.368 203.232 180.368C202.336 180.368 201.552 180.536 200.88 180.872C200.208 181.208 199.676 181.665 199.284 182.244C198.91 182.804 198.724 183.448 198.724 184.176C198.724 184.848 198.901 185.473 199.256 186.052C199.61 186.612 200.133 187.069 200.824 187.424C201.514 187.779 202.364 187.956 203.372 187.956ZM229.041 190L237.357 171.576L238.085 172.836H226.437L227.837 171.464V176.336H225.149V170.4H239.933V172.304L232.009 190H229.041ZM252.339 190.224C250.752 190.224 249.38 189.991 248.223 189.524C247.065 189.057 246.169 188.395 245.535 187.536C244.9 186.659 244.583 185.632 244.583 184.456C244.583 183.299 244.881 182.319 245.479 181.516C246.095 180.695 246.981 180.079 248.139 179.668C249.296 179.239 250.696 179.024 252.339 179.024C253.981 179.024 255.381 179.239 256.539 179.668C257.715 180.079 258.611 180.695 259.227 181.516C259.843 182.337 260.151 183.317 260.151 184.456C260.151 185.632 259.833 186.659 259.199 187.536C258.564 188.395 257.659 189.057 256.483 189.524C255.307 189.991 253.925 190.224 252.339 190.224ZM252.339 187.956C253.907 187.956 255.129 187.639 256.007 187.004C256.903 186.351 257.351 185.473 257.351 184.372C257.351 183.289 256.903 182.44 256.007 181.824C255.129 181.189 253.907 180.872 252.339 180.872C250.789 180.872 249.576 181.189 248.699 181.824C247.821 182.44 247.383 183.289 247.383 184.372C247.383 185.473 247.821 186.351 248.699 187.004C249.576 187.639 250.789 187.956 252.339 187.956ZM252.339 180.536C250.845 180.536 249.576 180.34 248.531 179.948C247.485 179.537 246.683 178.959 246.123 178.212C245.563 177.447 245.283 176.541 245.283 175.496C245.283 174.395 245.572 173.452 246.151 172.668C246.748 171.865 247.579 171.249 248.643 170.82C249.707 170.391 250.939 170.176 252.339 170.176C253.757 170.176 254.999 170.391 256.063 170.82C257.127 171.249 257.957 171.865 258.555 172.668C259.152 173.452 259.451 174.395 259.451 175.496C259.451 176.541 259.171 177.447 258.611 178.212C258.051 178.959 257.239 179.537 256.175 179.948C255.111 180.34 253.832 180.536 252.339 180.536ZM252.339 178.744C253.701 178.744 254.765 178.464 255.531 177.904C256.315 177.344 256.707 176.579 256.707 175.608C256.707 174.619 256.305 173.844 255.503 173.284C254.7 172.724 253.645 172.444 252.339 172.444C251.032 172.444 249.987 172.724 249.203 173.284C248.437 173.844 248.055 174.619 248.055 175.608C248.055 176.579 248.428 177.344 249.175 177.904C249.94 178.464 250.995 178.744 252.339 178.744ZM271.842 190.224C270.461 190.224 269.117 190.009 267.81 189.58C266.522 189.151 265.468 188.572 264.646 187.844L265.934 185.632C266.588 186.248 267.437 186.752 268.482 187.144C269.528 187.536 270.638 187.732 271.814 187.732C273.308 187.732 274.456 187.415 275.258 186.78C276.061 186.145 276.462 185.296 276.462 184.232C276.462 183.504 276.285 182.869 275.93 182.328C275.576 181.787 274.96 181.376 274.082 181.096C273.224 180.797 272.038 180.648 270.526 180.648H266.074L267.11 170.4H278.17V172.836H268.146L269.602 171.464L268.79 179.556L267.334 178.212H271.114C273.074 178.212 274.652 178.464 275.846 178.968C277.041 179.472 277.909 180.172 278.45 181.068C278.992 181.945 279.262 182.963 279.262 184.12C279.262 185.24 278.992 186.267 278.45 187.2C277.909 188.115 277.088 188.852 275.986 189.412C274.904 189.953 273.522 190.224 271.842 190.224ZM284.112 185.184V183.224L294.136 170.4H297.16L287.22 183.224L285.792 182.776H301.444V185.184H284.112ZM295.004 190V185.184L295.088 182.776V178.52H297.72V190H295.004ZM315.962 185.184V183.224L325.986 170.4H329.01L319.07 183.224L317.642 182.776H333.294V185.184H315.962ZM326.854 190V185.184L326.938 182.776V178.52H329.57V190H326.854ZM346.005 190.224C344.269 190.224 342.785 189.841 341.553 189.076C340.321 188.311 339.378 187.209 338.725 185.772C338.09 184.316 337.773 182.543 337.773 180.452C337.773 178.231 338.165 176.355 338.949 174.824C339.733 173.293 340.825 172.136 342.225 171.352C343.625 170.568 345.23 170.176 347.041 170.176C347.974 170.176 348.861 170.269 349.701 170.456C350.56 170.643 351.297 170.932 351.913 171.324L350.849 173.508C350.345 173.153 349.766 172.911 349.113 172.78C348.478 172.649 347.806 172.584 347.097 172.584C345.1 172.584 343.513 173.209 342.337 174.46C341.161 175.692 340.573 177.531 340.573 179.976C340.573 180.368 340.592 180.835 340.629 181.376C340.666 181.917 340.76 182.449 340.909 182.972L339.957 182.02C340.237 181.161 340.676 180.443 341.273 179.864C341.889 179.267 342.617 178.828 343.457 178.548C344.316 178.249 345.24 178.1 346.229 178.1C347.536 178.1 348.693 178.343 349.701 178.828C350.709 179.313 351.502 180.004 352.081 180.9C352.66 181.777 352.949 182.823 352.949 184.036C352.949 185.287 352.641 186.379 352.025 187.312C351.409 188.245 350.578 188.964 349.533 189.468C348.488 189.972 347.312 190.224 346.005 190.224ZM345.893 187.956C346.752 187.956 347.498 187.797 348.133 187.48C348.786 187.163 349.3 186.724 349.673 186.164C350.046 185.585 350.233 184.913 350.233 184.148C350.233 182.991 349.832 182.076 349.029 181.404C348.226 180.713 347.134 180.368 345.753 180.368C344.857 180.368 344.073 180.536 343.401 180.872C342.729 181.208 342.197 181.665 341.805 182.244C341.432 182.804 341.245 183.448 341.245 184.176C341.245 184.848 341.422 185.473 341.777 186.052C342.132 186.612 342.654 187.069 343.345 187.424C344.036 187.779 344.885 187.956 345.893 187.956ZM365.498 190.224C363.911 190.224 362.539 189.991 361.382 189.524C360.225 189.057 359.329 188.395 358.694 187.536C358.059 186.659 357.742 185.632 357.742 184.456C357.742 183.299 358.041 182.319 358.638 181.516C359.254 180.695 360.141 180.079 361.298 179.668C362.455 179.239 363.855 179.024 365.498 179.024C367.141 179.024 368.541 179.239 369.698 179.668C370.874 180.079 371.77 180.695 372.386 181.516C373.002 182.337 373.31 183.317 373.31 184.456C373.31 185.632 372.993 186.659 372.358 187.536C371.723 188.395 370.818 189.057 369.642 189.524C368.466 189.991 367.085 190.224 365.498 190.224ZM365.498 187.956C367.066 187.956 368.289 187.639 369.166 187.004C370.062 186.351 370.51 185.473 370.51 184.372C370.51 183.289 370.062 182.44 369.166 181.824C368.289 181.189 367.066 180.872 365.498 180.872C363.949 180.872 362.735 181.189 361.858 181.824C360.981 182.44 360.542 183.289 360.542 184.372C360.542 185.473 360.981 186.351 361.858 187.004C362.735 187.639 363.949 187.956 365.498 187.956ZM365.498 180.536C364.005 180.536 362.735 180.34 361.69 179.948C360.645 179.537 359.842 178.959 359.282 178.212C358.722 177.447 358.442 176.541 358.442 175.496C358.442 174.395 358.731 173.452 359.31 172.668C359.907 171.865 360.738 171.249 361.802 170.82C362.866 170.391 364.098 170.176 365.498 170.176C366.917 170.176 368.158 170.391 369.222 170.82C370.286 171.249 371.117 171.865 371.714 172.668C372.311 173.452 372.61 174.395 372.61 175.496C372.61 176.541 372.33 177.447 371.77 178.212C371.21 178.959 370.398 179.537 369.334 179.948C368.27 180.34 366.991 180.536 365.498 180.536ZM365.498 178.744C366.861 178.744 367.925 178.464 368.69 177.904C369.474 177.344 369.866 176.579 369.866 175.608C369.866 174.619 369.465 173.844 368.662 173.284C367.859 172.724 366.805 172.444 365.498 172.444C364.191 172.444 363.146 172.724 362.362 173.284C361.597 173.844 361.214 174.619 361.214 175.608C361.214 176.579 361.587 177.344 362.334 177.904C363.099 178.464 364.154 178.744 365.498 178.744ZM386.318 190.224C384.731 190.224 383.359 189.991 382.202 189.524C381.044 189.057 380.148 188.395 379.514 187.536C378.879 186.659 378.562 185.632 378.562 184.456C378.562 183.299 378.86 182.319 379.458 181.516C380.074 180.695 380.96 180.079 382.118 179.668C383.275 179.239 384.675 179.024 386.318 179.024C387.96 179.024 389.36 179.239 390.518 179.668C391.694 180.079 392.59 180.695 393.206 181.516C393.822 182.337 394.13 183.317 394.13 184.456C394.13 185.632 393.812 186.659 393.178 187.536C392.543 188.395 391.638 189.057 390.462 189.524C389.286 189.991 387.904 190.224 386.318 190.224ZM386.318 187.956C387.886 187.956 389.108 187.639 389.986 187.004C390.882 186.351 391.33 185.473 391.33 184.372C391.33 183.289 390.882 182.44 389.986 181.824C389.108 181.189 387.886 180.872 386.318 180.872C384.768 180.872 383.555 181.189 382.678 181.824C381.8 182.44 381.362 183.289 381.362 184.372C381.362 185.473 381.8 186.351 382.678 187.004C383.555 187.639 384.768 187.956 386.318 187.956ZM386.318 180.536C384.824 180.536 383.555 180.34 382.51 179.948C381.464 179.537 380.662 178.959 380.102 178.212C379.542 177.447 379.262 176.541 379.262 175.496C379.262 174.395 379.551 173.452 380.13 172.668C380.727 171.865 381.558 171.249 382.622 170.82C383.686 170.391 384.918 170.176 386.318 170.176C387.736 170.176 388.978 170.391 390.042 170.82C391.106 171.249 391.936 171.865 392.534 172.668C393.131 173.452 393.43 174.395 393.43 175.496C393.43 176.541 393.15 177.447 392.59 178.212C392.03 178.959 391.218 179.537 390.154 179.948C389.09 180.34 387.811 180.536 386.318 180.536ZM386.318 178.744C387.68 178.744 388.744 178.464 389.51 177.904C390.294 177.344 390.686 176.579 390.686 175.608C390.686 174.619 390.284 173.844 389.482 173.284C388.679 172.724 387.624 172.444 386.318 172.444C385.011 172.444 383.966 172.724 383.182 173.284C382.416 173.844 382.034 174.619 382.034 175.608C382.034 176.579 382.407 177.344 383.154 177.904C383.919 178.464 384.974 178.744 386.318 178.744Z" fill="white"/>
<path d="M58.62 253V247.8L58.96 248.72L53.02 239H54.6L59.82 247.54H58.98L64.2 239H65.68L59.74 248.72L60.08 247.8V253H58.62ZM73.4898 253.12C72.4365 253.12 71.4565 252.947 70.5498 252.6C69.6565 252.24 68.8765 251.74 68.2098 251.1C67.5565 250.447 67.0432 249.693 66.6698 248.84C66.3098 247.973 66.1298 247.027 66.1298 246C66.1298 244.973 66.3098 244.033 66.6698 243.18C67.0432 242.313 67.5565 241.56 68.2098 240.92C68.8765 240.267 69.6565 239.767 70.5498 239.42C71.4432 239.06 72.4232 238.88 73.4898 238.88C74.5432 238.88 75.5165 239.06 76.4098 239.42C77.3032 239.767 78.0765 240.26 78.7298 240.9C79.3965 241.54 79.9098 242.293 80.2698 243.16C80.6432 244.027 80.8298 244.973 80.8298 246C80.8298 247.027 80.6432 247.973 80.2698 248.84C79.9098 249.707 79.3965 250.46 78.7298 251.1C78.0765 251.74 77.3032 252.24 76.4098 252.6C75.5165 252.947 74.5432 253.12 73.4898 253.12ZM73.4898 251.8C74.3298 251.8 75.1032 251.66 75.8098 251.38C76.5298 251.087 77.1498 250.68 77.6698 250.16C78.2032 249.627 78.6165 249.013 78.9098 248.32C79.2032 247.613 79.3498 246.84 79.3498 246C79.3498 245.16 79.2032 244.393 78.9098 243.7C78.6165 242.993 78.2032 242.38 77.6698 241.86C77.1498 241.327 76.5298 240.92 75.8098 240.64C75.1032 240.347 74.3298 240.2 73.4898 240.2C72.6498 240.2 71.8698 240.347 71.1498 240.64C70.4298 240.92 69.8032 241.327 69.2698 241.86C68.7498 242.38 68.3365 242.993 68.0298 243.7C67.7365 244.393 67.5898 245.16 67.5898 246C67.5898 246.827 67.7365 247.593 68.0298 248.3C68.3365 249.007 68.7498 249.627 69.2698 250.16C69.8032 250.68 70.4298 251.087 71.1498 251.38C71.8698 251.66 72.6498 251.8 73.4898 251.8ZM89.7872 253.12C88.0005 253.12 86.5939 252.607 85.5672 251.58C84.5405 250.553 84.0272 249.033 84.0272 247.02V239H85.5072V246.96C85.5072 248.613 85.8805 249.833 86.6272 250.62C87.3739 251.407 88.4272 251.8 89.7872 251.8C91.1605 251.8 92.2205 251.407 92.9672 250.62C93.7139 249.833 94.0872 248.613 94.0872 246.96V239H95.5272V247.02C95.5272 249.033 95.0139 250.553 93.9872 251.58C92.9739 252.607 91.5739 253.12 89.7872 253.12ZM99.987 253V239H105.227C106.414 239 107.434 239.193 108.287 239.58C109.14 239.953 109.794 240.5 110.247 241.22C110.714 241.927 110.947 242.787 110.947 243.8C110.947 244.787 110.714 245.64 110.247 246.36C109.794 247.067 109.14 247.613 108.287 248C107.434 248.373 106.414 248.56 105.227 248.56H100.807L101.467 247.88V253H99.987ZM109.547 253L105.947 247.92H107.547L111.167 253H109.547ZM101.467 248L100.807 247.3H105.187C106.587 247.3 107.647 246.993 108.367 246.38C109.1 245.767 109.467 244.907 109.467 243.8C109.467 242.68 109.1 241.813 108.367 241.2C107.647 240.587 106.587 240.28 105.187 240.28H100.807L101.467 239.58V248ZM119.675 253V239H120.895L130.555 251.16H129.915V239H131.375V253H130.155L120.515 240.84H121.155V253H119.675ZM133.704 253L140.104 239H141.564L147.964 253H146.404L140.524 239.86H141.124L135.244 253H133.704ZM136.224 249.26L136.664 248.06H144.804L145.244 249.26H136.224ZM150.28 253V239H151.5L157.9 249.92H157.26L163.6 239H164.82V253H163.4V241.22H163.74L157.9 251.22H157.2L151.32 241.22H151.7V253H150.28ZM170.702 245.26H178.102V246.52H170.702V245.26ZM170.862 251.72H179.282V253H169.382V239H178.982V240.28H170.862V251.72Z" fill="white"/>
<path d="M68.6396 119.538H75.2527M68.6396 119.538L63.0931 115.692H52M68.6396 119.538V125.5M81.8659 119.538H75.2527M81.8659 119.538L86.9858 115.692H97.6522M81.8659 119.538V125.5M81.8659 131.462H75.2527M81.8659 131.462L86.9858 136.077H97.6522M81.8659 131.462V125.5M68.6396 131.462H75.2527M68.6396 131.462L63.0931 136.077H52M68.6396 131.462V125.5M75.2527 119.538V108M75.2527 131.462V143M68.6396 125.5H52M81.8659 125.5H97.6522" stroke="white" stroke-width="2"/>
<rect x="52" y="108" width="45.6522" height="35" rx="8" fill="white" fill-opacity="0.5"/>
<g clip-path="url(#clip0_608_283)">
<path d="M104.919 67.578C104.856 66.9276 104.796 66.2947 104.731 65.6067C104.628 65.7385 104.557 65.8289 104.488 65.9206C104.029 66.5258 103.476 67.0243 102.799 67.3771C102.031 67.7776 101.21 67.9384 100.35 67.9057C98.9334 67.853 97.7117 67.3457 96.7197 66.3186C96.1585 65.7372 95.7466 65.0592 95.4365 64.3171C95.0736 63.4507 94.8664 62.5454 94.7559 61.615C94.6329 60.5816 94.6228 59.5457 94.7182 58.5111C94.8488 57.0922 95.1791 55.7286 95.9036 54.4843C96.5439 53.3844 97.4128 52.528 98.6107 52.0546C99.8638 51.5599 101.138 51.4896 102.418 51.9605C103.241 52.2643 103.896 52.7992 104.427 53.4911C104.48 53.5601 104.531 53.6305 104.581 53.6983C104.599 53.6932 104.606 53.6932 104.614 53.6882C104.62 53.6845 104.624 53.6782 104.628 53.6719C104.631 53.6644 104.634 53.6568 104.635 53.6493C104.636 53.633 104.638 53.6179 104.638 53.6016C104.638 53.5853 104.638 53.5702 104.638 53.5539C104.638 51.074 104.639 48.5929 104.639 46.113C104.639 46.1055 104.639 46.0967 104.64 46.0891C104.641 46.0816 104.643 46.0728 104.644 46.0653C104.645 46.0578 104.645 46.049 104.649 46.0414C104.652 46.0339 104.658 46.0289 104.673 46.0063C105.877 46.0063 107.092 46.0063 108.322 46.0063C108.322 53.1973 108.322 60.3795 108.322 67.578C107.19 67.578 106.07 67.578 104.919 67.578ZM98.4575 60.0844C98.4789 60.4146 98.5002 60.9571 98.5529 61.4957C98.6182 62.1562 98.7576 62.8016 99.0351 63.4093C99.4658 64.3523 100.181 64.901 101.231 64.9675C102.538 65.0504 103.484 64.5444 104.035 63.3628C104.228 62.9497 104.356 62.514 104.436 62.0658C104.695 60.5854 104.692 59.1 104.473 57.6158C104.382 56.9905 104.212 56.3841 103.893 55.8316C103.514 55.1736 102.963 54.7492 102.206 54.6186C101.737 54.5383 101.269 54.5546 100.806 54.6739C100.219 54.8258 99.7521 55.1523 99.3992 55.6432C99.1029 56.0563 98.9158 56.5209 98.784 57.0081C98.5303 57.9461 98.4801 58.9079 98.4575 60.0844Z" fill="white"/>
<path d="M76.9059 67.5943C76.7916 67.5943 76.7138 67.5943 76.6347 67.5943C75.6138 67.5943 74.5918 67.5943 73.5709 67.5943C73.2985 67.5943 73.2909 67.5956 73.2181 67.3231C73.1566 67.0933 73.1139 66.8573 73.0637 66.6237C73.0461 66.5396 73.0348 66.4542 73.0222 66.3801C72.8741 66.3274 72.8125 66.4266 72.7422 66.4982C72.2224 67.028 71.6134 67.411 70.8927 67.5931C70.531 67.6847 70.1594 67.7513 69.7877 67.7864C68.964 67.863 68.1453 67.8279 67.348 67.5793C65.7421 67.077 64.7727 65.9884 64.4073 64.3586C64.219 63.5148 64.2102 62.6647 64.4111 61.8209C64.6861 60.6632 65.3717 59.8094 66.3812 59.1992C67.1421 58.7396 67.9733 58.4722 68.8359 58.2901C70.0677 58.0302 71.3171 57.9636 72.5714 57.9586C72.7146 57.9586 72.8565 57.9586 72.9871 57.9586C73.0084 57.9323 73.0272 57.921 73.0272 57.9084C73.036 57.3748 73.08 56.8399 72.9858 56.31C72.8226 55.3971 72.3128 54.8987 71.3874 54.7467C70.3327 54.5734 69.3055 54.7028 68.3036 55.0556C67.3304 55.3971 66.4578 55.9182 65.6441 56.5448C65.5763 56.5963 65.5073 56.6465 65.4118 56.7168C65.403 56.6302 65.393 56.5699 65.393 56.5109C65.3917 55.5855 65.3943 54.6601 65.3892 53.7359C65.388 53.5941 65.4307 53.5049 65.5525 53.4233C66.8207 52.5657 68.2018 51.9856 69.7237 51.796C71.1049 51.624 72.4798 51.6805 73.8195 52.1061C75.3326 52.587 76.2291 53.6292 76.5656 55.1661C76.7 55.7839 76.7653 56.4079 76.7263 57.042C76.7226 57.106 76.7251 57.1701 76.7251 57.2329C76.7251 59.4503 76.7188 61.6678 76.7276 63.8852C76.7326 65.0178 76.7778 66.1491 76.8908 67.2767C76.8983 67.3721 76.8996 67.4663 76.9059 67.5943ZM73.0385 60.4284C72.9758 60.4184 72.9381 60.4046 72.9004 60.4058C72.1684 60.436 71.4338 60.4485 70.7031 60.5063C70.2033 60.5452 69.7124 60.6645 69.249 60.8742C68.6037 61.1655 68.2018 61.6502 68.1089 62.3558C68.07 62.6459 68.0713 62.946 68.0989 63.2373C68.1906 64.2016 68.8146 64.8684 69.7676 65.0404C70.3251 65.1408 70.8814 65.1182 71.4276 64.9713C72.0102 64.8144 72.5124 64.5193 72.9054 64.0497C73.0034 63.9317 73.0436 63.8111 73.0423 63.6592C73.0373 62.6622 73.0398 61.6652 73.0398 60.6695C73.0385 60.5904 73.0385 60.5126 73.0385 60.4284Z" fill="white"/>
<path d="M123.427 61.104C120.471 61.104 117.522 61.104 114.576 61.104C114.558 61.1429 114.541 61.163 114.541 61.1831C114.577 61.9377 114.7 62.6735 115.044 63.3553C115.461 64.1828 116.157 64.6474 117.043 64.847C118.034 65.0693 119.026 65.019 120.013 64.8232C121.14 64.5996 122.207 64.2104 123.185 63.5977C123.21 63.5826 123.239 63.5738 123.286 63.5525C123.286 64.557 123.286 65.5401 123.286 66.5421C122.988 66.7618 122.65 66.9376 122.301 67.0921C121.427 67.4813 120.51 67.7073 119.562 67.8203C118.477 67.9484 117.396 67.9446 116.319 67.7626C114.993 67.5378 113.794 67.0381 112.814 66.0876C112.022 65.3191 111.515 64.3812 111.185 63.339C110.903 62.4513 110.77 61.5372 110.725 60.6105C110.66 59.2657 110.745 57.9323 111.093 56.6251C111.34 55.6922 111.714 54.817 112.29 54.0348C113.137 52.8821 114.266 52.1476 115.66 51.8349C116.885 51.5599 118.117 51.5725 119.335 51.8876C120.914 52.2957 122.017 53.2726 122.68 54.7543C123.045 55.5692 123.237 56.4305 123.348 57.312C123.501 58.535 123.438 59.7655 123.447 60.9935C123.446 61.0249 123.436 61.055 123.427 61.104ZM119.679 58.3554C119.684 58.26 119.693 58.1821 119.69 58.1043C119.681 57.8255 119.679 57.5455 119.654 57.268C119.612 56.8147 119.531 56.369 119.357 55.9446C119.022 55.1259 118.432 54.65 117.534 54.5822C116.348 54.4943 115.48 54.9865 115.008 55.9986C114.769 56.5096 114.649 57.0521 114.586 57.6083C114.558 57.8506 114.546 58.0955 114.526 58.3541C116.255 58.3554 117.951 58.3554 119.679 58.3554Z" fill="white"/>
<path d="M79.7574 51.9755C80.9603 51.9755 82.1393 51.9755 83.3498 51.9755C83.3824 52.3999 83.4151 52.8243 83.4465 53.2349C83.5984 53.3103 83.675 53.2224 83.7579 53.147C84.3882 52.5707 85.1227 52.189 85.9439 51.9617C86.6659 51.7621 87.4017 51.7043 88.1475 51.7206C88.6435 51.7319 89.1332 51.7872 89.6141 51.914C90.7856 52.2216 91.5402 52.9549 91.8906 54.1126C92.099 54.7995 92.1492 55.5064 92.1505 56.2171C92.153 59.9262 92.1517 63.6341 92.1517 67.3432C92.1517 67.4135 92.1455 67.4851 92.1417 67.5516C91.9621 67.6031 88.7816 67.6169 88.4501 67.5667C88.4501 67.4713 88.4501 67.3708 88.4501 67.2704C88.4501 63.7207 88.4514 60.1723 88.4476 56.6226C88.4476 56.4092 88.4326 56.1907 88.3899 55.9823C88.2794 55.4436 87.9529 55.0857 87.4205 54.9363C86.7475 54.748 86.0757 54.7932 85.4178 55.0041C84.6694 55.2439 84.0567 55.6897 83.5381 56.2748C83.4691 56.3527 83.4389 56.433 83.4452 56.5347C83.4502 56.6063 83.4465 56.6779 83.4465 56.7494C83.4465 60.2514 83.4465 63.7521 83.4465 67.2541C83.4465 67.3558 83.4465 67.4575 83.4465 67.5767C82.2046 67.5767 80.9892 67.5767 79.7574 67.5767C79.7574 62.3784 79.7574 57.1889 79.7574 51.9755Z" fill="white"/>
<path d="M124.438 67.5943C126.093 64.8508 127.717 62.1574 129.349 59.4541C127.781 56.9692 126.218 54.4906 124.635 51.9806C124.728 51.9743 124.787 51.968 124.846 51.968C126.099 51.9668 127.351 51.9705 128.604 51.9642C128.76 51.963 128.846 52.012 128.928 52.1438C129.812 53.5564 130.703 54.9639 131.594 56.3728C131.653 56.4657 131.715 56.5561 131.796 56.6766C132.691 55.0945 133.572 53.5375 134.453 51.9818C135.681 51.9818 136.896 51.9818 138.149 51.9818C136.673 54.5194 135.211 57.0307 133.748 59.5432C135.445 62.2215 137.131 64.8859 138.839 67.583C138.716 67.5893 138.639 67.5956 138.562 67.5956C137.349 67.5968 136.136 67.5918 134.924 67.6006C134.728 67.6019 134.627 67.5315 134.528 67.3721C133.517 65.7561 132.499 64.1464 131.482 62.5354C131.444 62.4764 131.401 62.4199 131.341 62.3345C131.285 62.4211 131.237 62.4889 131.194 62.5605C130.24 64.1627 129.283 65.7649 128.335 67.3708C128.24 67.5328 128.139 67.6031 127.943 67.6006C126.875 67.5906 125.805 67.5956 124.735 67.5956C124.659 67.5943 124.58 67.5943 124.438 67.5943Z" fill="white"/>
<path d="M58.7557 67.5515C57.5315 67.5515 56.3223 67.5515 55.0868 67.5515C55.0805 67.4435 55.0705 67.3431 55.0705 67.2426C55.0692 65.3918 55.0679 63.541 55.0717 61.6902C55.0717 61.5019 55.0328 61.3324 54.9537 61.1616C52.9472 56.8046 50.9432 52.4463 48.938 48.088C48.6592 47.4802 48.3779 46.8725 48.0992 46.2648C48.0665 46.1932 48.0402 46.1191 48 46.0187C48.0979 46.0124 48.1733 46.0049 48.2486 46.0049C49.3661 46.0036 50.4836 46.0086 51.5999 45.9999C51.7882 45.9986 51.8786 46.0538 51.9565 46.2284C52.8555 48.2098 53.7646 50.1861 54.6712 52.1637C55.6706 54.3435 56.6726 56.5233 57.6684 58.7056C58.0061 59.4451 58.325 60.191 58.5121 60.9883C58.6829 61.7141 58.7507 62.4511 58.7582 63.1932C58.7721 64.5807 58.7733 65.9681 58.7771 67.3569C58.7783 67.4171 58.7645 67.4787 58.7557 67.5515Z" fill="white"/>
<path d="M61.223 56.3979C59.9862 56.3979 58.752 56.3979 57.4888 56.3979C57.5252 56.2999 57.5516 56.2183 57.5855 56.1405C59.047 52.8319 60.5086 49.5233 61.9689 46.2147C62.0216 46.0942 62.0631 45.9975 62.2351 45.9987C63.3915 46.0075 64.5492 46.0038 65.7056 46.0038C65.7282 46.0038 65.7521 46.0113 65.7722 46.0151C65.7785 46.0251 65.7835 46.0314 65.786 46.0377C65.7885 46.0452 65.7923 46.0527 65.791 46.0603C65.7873 46.0841 65.7847 46.108 65.776 46.1293C64.2767 49.5258 62.7775 52.921 61.277 56.3163C61.2645 56.3476 61.2419 56.3715 61.223 56.3979Z" fill="white"/>
</g>
<path d="M288.539 55.7091H282V51.4457H299.838V55.7175H293.3V67.4903H288.539V55.7091Z" fill="white"/>
<path d="M301.521 67.4483V51.4709H306.282V67.4483H301.521Z" fill="white"/>
<path d="M321.763 60.2164V51.4457H326.143V67.423H322.081L313.923 58.6018V67.4483H309.543V51.4709H313.796L321.763 60.2164Z" fill="white"/>
<path d="M334.071 67.4483H329.468V51.4709H334.071V57.4918H335.34L340.895 51.4709H346.672L339.308 59.14L346.957 67.4819H340.823L335.332 61.4273H334.063L334.071 67.4483Z" fill="white"/>
<path d="M366.406 59.4764C366.406 64.2528 362.693 67.9528 356.535 67.9528C350.377 67.9528 346.632 64.2528 346.632 59.4764C346.632 54.7 350.346 51 356.535 51C362.724 51 366.406 54.7 366.406 59.4764ZM361.582 59.4764C361.582 56.8528 359.582 54.9355 356.535 54.9355C353.488 54.9355 351.488 56.8528 351.488 59.4764C351.488 62.1001 353.456 64.051 356.535 64.051C359.614 64.051 361.582 62.1001 361.582 59.4764Z" fill="white"/>
<path d="M373.255 55.5073V58.4H383.412V61.7637H373.255V67.4483H368.652V51.4709H383.792V55.5409L373.255 55.5073Z" fill="white"/>
<path d="M390.537 55.5073V58.4H400.694V61.7637H390.537V67.4483H385.951V51.4709H401.091V55.5409L390.537 55.5073Z" fill="white"/>
<defs>
<filter id="filter0_bdiiiii_608_283" x="-10" y="-10" width="483" height="349" filterUnits="userSpaceOnUse" color-interpolation-filters="sRGB">
<feFlood flood-opacity="0" result="BackgroundImageFix"/>
<feGaussianBlur in="BackgroundImageFix" stdDeviation="15"/>
<feComposite in2="SourceAlpha" operator="in" result="effect1_backgroundBlur_608_283"/>
<feColorMatrix in="SourceAlpha" type="matrix" values="0 0 0 0 0 0 0 0 0 0 0 0 0 0 0 0 0 0 127 0" result="hardAlpha"/>
<feOffset dx="10" dy="10"/>
<feGaussianBlur stdDeviation="15"/>
<feComposite in2="hardAlpha" operator="out"/>
<feColorMatrix type="matrix" values="0 0 0 0 0 0 0 0 0 0 0 0 0 0 0 0 0 0 0.25 0"/>
<feBlend mode="normal" in2="effect1_backgroundBlur_608_283" result="effect2_dropShadow_608_283"/>
<feBlend mode="normal" in="SourceGraphic" in2="effect2_dropShadow_608_283" result="shape"/>
<feColorMatrix in="SourceAlpha" type="matrix" values="0 0 0 0 0 0 0 0 0 0 0 0 0 0 0 0 0 0 127 0" result="hardAlpha"/>
<feOffset dy="1"/>
<feGaussianBlur stdDeviation="20"/>
<feComposite in2="hardAlpha" operator="arithmetic" k2="-1" k3="1"/>
<feColorMatrix type="matrix" values="0 0 0 0 0.905882 0 0 0 0 0.898039 0 0 0 0 0.996078 0 0 0 0.2 0"/>
<feBlend mode="normal" in2="shape" result="effect3_innerShadow_608_283"/>
<feColorMatrix in="SourceAlpha" type="matrix" values="0 0 0 0 0 0 0 0 0 0 0 0 0 0 0 0 0 0 127 0" result="hardAlpha"/>
<feOffset dy="4"/>
<feGaussianBlur stdDeviation="9"/>
<feComposite in2="hardAlpha" operator="arithmetic" k2="-1" k3="1"/>
<feColorMatrix type="matrix" values="0 0 0 0 0.603922 0 0 0 0 0.572549 0 0 0 0 0.823529 0 0 0 0.3 0"/>
<feBlend mode="normal" in2="effect3_innerShadow_608_283" result="effect4_innerShadow_608_283"/>
<feColorMatrix in="SourceAlpha" type="matrix" values="0 0 0 0 0 0 0 0 0 0 0 0 0 0 0 0 0 0 127 0" result="hardAlpha"/>
<feMorphology radius="48" operator="dilate" in="SourceAlpha" result="effect5_innerShadow_608_283"/>
<feOffset dy="98"/>
<feGaussianBlur stdDeviation="50"/>
<feComposite in2="hardAlpha" operator="arithmetic" k2="-1" k3="1"/>
<feColorMatrix type="matrix" values="0 0 0 0 0.807843 0 0 0 0 0.74902 0 0 0 0 0.984314 0 0 0 0.3 0"/>
<feBlend mode="normal" in2="effect4_innerShadow_608_283" result="effect5_innerShadow_608_283"/>
<feColorMatrix in="SourceAlpha" type="matrix" values="0 0 0 0 0 0 0 0 0 0 0 0 0 0 0 0 0 0 127 0" result="hardAlpha"/>
<feMorphology radius="64" operator="dilate" in="SourceAlpha" result="effect6_innerShadow_608_283"/>
<feOffset dy="-82"/>
<feGaussianBlur stdDeviation="34"/>
<feComposite in2="hardAlpha" operator="arithmetic" k2="-1" k3="1"/>
<feColorMatrix type="matrix" values="0 0 0 0 0.376471 0 0 0 0 0.266667 0 0 0 0 0.564706 0 0 0 0.3 0"/>
<feBlend mode="normal" in2="effect5_innerShadow_608_283" result="effect6_innerShadow_608_283"/>
<feColorMatrix in="SourceAlpha" type="matrix" values="0 0 0 0 0 0 0 0 0 0 0 0 0 0 0 0 0 0 127 0" result="hardAlpha"/>
<feMorphology radius="4" operator="dilate" in="SourceAlpha" result="effect7_innerShadow_608_283"/>
<feOffset dy="7"/>
<feGaussianBlur stdDeviation="5.5"/>
<feComposite in2="hardAlpha" operator="arithmetic" k2="-1" k3="1"/>
<feColorMatrix type="matrix" values="0 0 0 0 1 0 0 0 0 1 0 0 0 0 1 0 0 0 1 0"/>
<feBlend mode="normal" in2="effect6_innerShadow_608_283" result="effect7_innerShadow_608_283"/>
</filter>
<linearGradient id="paint0_linear_608_283" x1="20" y1="241.5" x2="436" y2="33" gradientUnits="userSpaceOnUse">
<stop stop-color="#FFF3B4"/>
<stop offset="1" stop-color="#5F0ACB" stop-opacity="0"/>
</linearGradient>
<clipPath id="clip0_608_283">
<rect width="90.8398" height="21.9107" fill="white" transform="translate(48 46)"/>
</clipPath>
</defs>
</svg>
