<svg width="240" height="23" viewBox="0 0 240 23" fill="none" xmlns="http://www.w3.org/2000/svg">
<g clip-path="url(#clip0_608_119)">
<path d="M56.919 22.0997C56.8562 21.4493 56.7959 20.8165 56.7306 20.1284C56.6277 20.2602 56.5574 20.3506 56.4883 20.4423C56.0287 21.0475 55.4763 21.546 54.7995 21.8988C54.031 22.2994 53.2099 22.4601 52.3497 22.4275C50.9334 22.3747 49.7117 21.8675 48.7197 20.8403C48.1585 20.259 47.7466 19.5809 47.4365 18.8389C47.0736 17.9725 46.8664 17.0672 46.7559 16.1368C46.6329 15.1034 46.6228 14.0675 46.7182 13.0328C46.8488 11.614 47.1791 10.2504 47.9036 9.00603C48.5439 7.9061 49.4128 7.04976 50.6107 6.57639C51.8638 6.08167 53.1383 6.01135 54.4178 6.48221C55.2415 6.78608 55.8956 7.32097 56.4268 8.01283C56.4795 8.08189 56.531 8.1522 56.5812 8.22001C56.5988 8.21498 56.6063 8.21498 56.6139 8.20996C56.6201 8.20619 56.6239 8.19992 56.6277 8.19364C56.6314 8.1861 56.634 8.17857 56.6352 8.17104C56.6365 8.15471 56.6377 8.13965 56.6377 8.12332C56.6377 8.107 56.6377 8.09193 56.6377 8.07561C56.6377 5.59574 56.639 3.11461 56.639 0.634744C56.639 0.62721 56.639 0.618421 56.6402 0.610887C56.6415 0.603353 56.6427 0.594564 56.644 0.58703C56.6453 0.579496 56.6453 0.570707 56.649 0.563173C56.6515 0.555639 56.6578 0.550616 56.6729 0.528015C57.877 0.528015 59.0925 0.528015 60.3217 0.528015C60.3217 7.71901 60.3217 14.9012 60.3217 22.0997C59.1904 22.0997 58.0704 22.0997 56.919 22.0997ZM50.4575 14.6061C50.4789 14.9364 50.5002 15.4788 50.5529 16.0175C50.6182 16.6779 50.7576 17.3233 51.0351 17.931C51.4658 18.874 52.1815 19.4227 53.2312 19.4893C54.5383 19.5722 55.4838 19.0661 56.035 17.8846C56.2284 17.4715 56.3565 17.0358 56.4356 16.5875C56.6955 15.1071 56.6917 13.6217 56.4732 12.1376C56.3816 11.5123 56.2121 10.9058 55.8931 10.3533C55.5139 9.69537 54.9627 9.27097 54.2056 9.14038C53.7372 9.06002 53.2689 9.07635 52.8055 9.19563C52.2192 9.34756 51.7521 9.67403 51.3992 10.165C51.1029 10.5781 50.9158 11.0427 50.784 11.5298C50.5303 12.4678 50.4801 13.4296 50.4575 14.6061Z" fill="black"/>
<path d="M28.9059 22.116C28.7916 22.116 28.7138 22.116 28.6347 22.116C27.6138 22.116 26.5918 22.116 25.5709 22.116C25.2985 22.116 25.2909 22.1173 25.2181 21.8448C25.1566 21.615 25.1139 21.379 25.0637 21.1454C25.0461 21.0613 25.0348 20.9759 25.0222 20.9018C24.8741 20.8491 24.8125 20.9483 24.7422 21.0199C24.2224 21.5498 23.6134 21.9327 22.8927 22.1148C22.531 22.2064 22.1594 22.273 21.7877 22.3082C20.964 22.3847 20.1453 22.3496 19.348 22.101C17.7421 21.5987 16.7727 20.5101 16.4073 18.8803C16.219 18.0365 16.2102 17.1864 16.4111 16.3427C16.6861 15.185 17.3717 14.3311 18.3812 13.7209C19.1421 13.2613 19.9733 12.9939 20.8359 12.8118C22.0677 12.5519 23.3171 12.4854 24.5714 12.4803C24.7146 12.4803 24.8565 12.4803 24.9871 12.4803C25.0084 12.454 25.0272 12.4427 25.0272 12.4301C25.036 11.8965 25.08 11.3616 24.9858 10.8317C24.8226 9.91885 24.3128 9.42037 23.3874 9.26843C22.3327 9.09516 21.3055 9.22449 20.3036 9.57732C19.3304 9.91885 18.4578 10.4399 17.6441 11.0665C17.5763 11.118 17.5073 11.1682 17.4118 11.2385C17.403 11.1519 17.393 11.0916 17.393 11.0326C17.3917 10.1072 17.3943 9.1818 17.3892 8.25765C17.388 8.11577 17.4307 8.02662 17.5525 7.945C18.8207 7.0874 20.2018 6.5073 21.7237 6.3177C23.1049 6.14568 24.4798 6.20218 25.8195 6.62784C27.3326 7.10875 28.2291 8.15092 28.5656 9.68781C28.7 10.3056 28.7652 10.9296 28.7263 11.5637C28.7226 11.6278 28.7251 11.6918 28.7251 11.7546C28.7251 13.972 28.7188 16.1895 28.7276 18.4069C28.7326 19.5395 28.7778 20.6708 28.8908 21.7984C28.8983 21.8938 28.8996 21.988 28.9059 22.116ZM25.0385 14.9502C24.9758 14.9401 24.9381 14.9263 24.9004 14.9276C24.1684 14.9577 23.4338 14.9703 22.7031 15.028C22.2033 15.0669 21.7124 15.1862 21.249 15.3959C20.6037 15.6872 20.2018 16.1719 20.1089 16.8776C20.07 17.1676 20.0713 17.4677 20.0989 17.759C20.1906 18.7233 20.8146 19.3901 21.7676 19.5621C22.3251 19.6625 22.8814 19.6399 23.4276 19.493C24.0102 19.3361 24.5124 19.041 24.9054 18.5714C25.0034 18.4534 25.0436 18.3328 25.0423 18.1809C25.0373 17.1839 25.0398 16.187 25.0398 15.1912C25.0385 15.1121 25.0385 15.0343 25.0385 14.9502Z" fill="black"/>
<path d="M75.427 15.6257C72.4713 15.6257 69.5218 15.6257 66.5761 15.6257C66.5585 15.6646 66.5409 15.6847 66.5409 15.7048C66.5773 16.4595 66.7004 17.1953 67.0444 17.8771C67.4613 18.7045 68.1569 19.1691 69.0434 19.3688C70.0341 19.591 71.026 19.5408 72.0129 19.3449C73.1405 19.1214 74.2065 18.7321 75.1847 18.1194C75.2098 18.1043 75.2387 18.0955 75.2864 18.0742C75.2864 19.0787 75.2864 20.0619 75.2864 21.0639C74.9875 21.2836 74.6498 21.4594 74.3007 21.6138C73.4268 22.0031 72.5102 22.2291 71.5622 22.3421C70.4773 22.4702 69.3962 22.4664 68.3189 22.2843C66.9929 22.0596 65.7938 21.5598 64.8144 20.6093C64.0221 19.8409 63.5148 18.9029 63.1846 17.8607C62.9033 16.973 62.7702 16.0589 62.725 15.1323C62.6597 13.7875 62.7451 12.454 63.0929 11.1469C63.3403 10.214 63.7145 9.33878 64.2896 8.55652C65.1371 7.40385 66.2659 6.66931 67.6597 6.35666C68.8852 6.08167 70.1169 6.09423 71.3349 6.40939C72.9145 6.81747 74.0169 7.79435 74.6799 9.276C75.0453 10.0909 75.2374 10.9523 75.3479 11.8337C75.5011 13.0567 75.4383 14.2872 75.4471 15.5152C75.4458 15.5466 75.4358 15.5767 75.427 15.6257ZM71.6789 12.8771C71.684 12.7817 71.6928 12.7039 71.6902 12.626C71.6815 12.3473 71.6789 12.0673 71.6538 11.7898C71.6124 11.3365 71.5308 10.8907 71.3575 10.4663C71.0222 9.64766 70.4321 9.17178 69.5343 9.10397C68.3478 9.01608 67.4801 9.50829 67.008 10.5203C66.7694 11.0314 66.6489 11.5738 66.5861 12.13C66.5585 12.3724 66.5459 12.6172 66.5258 12.8759C68.2548 12.8771 69.9512 12.8771 71.6789 12.8771Z" fill="black"/>
<path d="M31.7574 6.49728C32.9603 6.49728 34.1393 6.49728 35.3497 6.49728C35.3824 6.92169 35.415 7.34609 35.4464 7.75668C35.5984 7.83202 35.675 7.74412 35.7578 7.66879C36.3881 7.09245 37.1227 6.71074 37.9439 6.48347C38.6659 6.28383 39.4017 6.22607 40.1475 6.24239C40.6435 6.25369 41.1332 6.30894 41.6141 6.43576C42.7856 6.74339 43.5402 7.47667 43.8905 8.63437C44.099 9.3212 44.1492 10.0281 44.1505 10.7388C44.153 14.4479 44.1517 18.1558 44.1517 21.8649C44.1517 21.9353 44.1454 22.0068 44.1417 22.0734C43.9621 22.1249 40.7816 22.1387 40.4501 22.0884C40.4501 21.993 40.4501 21.8926 40.4501 21.7921C40.4501 18.2424 40.4514 14.694 40.4476 11.1444C40.4476 10.9309 40.4325 10.7124 40.3898 10.504C40.2793 9.96533 39.9529 9.60748 39.4205 9.45806C38.7475 9.26971 38.0757 9.31492 37.4178 9.52586C36.6694 9.76569 36.0567 10.2114 35.5381 10.7966C35.469 10.8744 35.4389 10.9548 35.4452 11.0565C35.4502 11.128 35.4464 11.1996 35.4464 11.2712C35.4464 14.7731 35.4464 18.2738 35.4464 21.7758C35.4464 21.8775 35.4464 21.9792 35.4464 22.0985C34.2046 22.0985 32.9892 22.0985 31.7574 22.0985C31.7574 16.9002 31.7574 11.7107 31.7574 6.49728Z" fill="black"/>
<path d="M76.4377 22.1161C78.0927 19.3725 79.7174 16.6792 81.3485 13.9758C79.7815 11.4909 78.2182 9.01231 76.6349 6.50231C76.7278 6.49603 76.7868 6.48975 76.8458 6.48975C78.0989 6.4885 79.3508 6.49226 80.6039 6.48599C80.7596 6.48473 80.8463 6.5337 80.9279 6.66554C81.8118 8.07812 82.7033 9.48569 83.5936 10.8945C83.6526 10.9874 83.7154 11.0778 83.7957 11.1984C84.691 9.61627 85.5725 8.05929 86.4527 6.50356C87.6807 6.50356 88.8961 6.50356 90.1492 6.50356C88.6726 9.04119 87.211 11.5525 85.7482 14.065C87.4446 16.7432 89.1309 19.4077 90.8386 22.1048C90.7155 22.111 90.6389 22.1173 90.5623 22.1173C89.3494 22.1186 88.1365 22.1136 86.9235 22.1223C86.7276 22.1236 86.6272 22.0533 86.528 21.8938C85.5172 20.2778 84.4989 18.6681 83.4818 17.0571C83.4442 16.9981 83.4015 16.9416 83.3412 16.8562C83.2847 16.9429 83.237 17.0107 83.1943 17.0822C82.24 18.6844 81.2832 20.2866 80.3352 21.8926C80.2398 22.0545 80.1393 22.1249 79.9435 22.1223C78.8749 22.1123 77.8051 22.1173 76.7353 22.1173C76.6587 22.1161 76.5796 22.1161 76.4377 22.1161Z" fill="black"/>
<path d="M10.7557 22.0732C9.53149 22.0732 8.32232 22.0732 7.08678 22.0732C7.0805 21.9653 7.07045 21.8648 7.07045 21.7643C7.0692 19.9136 7.06794 18.0628 7.07171 16.212C7.07171 16.0236 7.03279 15.8541 6.95368 15.6833C4.94718 11.3263 2.9432 6.968 0.937956 2.60971C0.659206 2.00198 0.377945 1.39426 0.0991948 0.786535C0.0665484 0.714964 0.0401802 0.640882 0 0.540431C0.0979392 0.534153 0.173277 0.526619 0.248615 0.526619C1.36613 0.525364 2.48364 0.530386 3.59989 0.521597C3.78824 0.520341 3.87864 0.575589 3.95649 0.750121C4.85552 2.73151 5.7646 4.70787 6.67116 6.68549C7.67065 8.86526 8.67264 11.045 9.66835 13.2273C10.0061 13.9669 10.325 14.7127 10.5121 15.5101C10.6829 16.2358 10.7507 16.9729 10.7582 17.7149C10.7721 19.1024 10.7733 20.4899 10.7771 21.8786C10.7783 21.9389 10.7645 22.0004 10.7557 22.0732Z" fill="#FF3D12"/>
<path d="M13.223 10.9196C11.9862 10.9196 10.7519 10.9196 9.48877 10.9196C9.52518 10.8216 9.55155 10.74 9.58545 10.6622C11.047 7.3536 12.5086 4.04501 13.9689 0.736427C14.0216 0.615887 14.063 0.519203 14.2351 0.520459C15.3915 0.529248 16.5492 0.525481 17.7056 0.525481C17.7282 0.525481 17.7521 0.533015 17.7722 0.536782C17.7784 0.546827 17.7835 0.553105 17.786 0.559383C17.7885 0.566917 17.7923 0.574451 17.791 0.581985C17.7872 0.605842 17.7847 0.629699 17.7759 0.651044C16.2767 4.04752 14.7775 7.44275 13.277 10.838C13.2644 10.8694 13.2418 10.8932 13.223 10.9196Z" fill="#FF3D12"/>
</g>
<path d="M127.448 10.5086H120.909V6.24518H138.747V10.517H132.209V22.2898H127.448V10.5086Z" fill="black"/>
<path d="M140.429 22.2478V6.27039H145.191V22.2478H140.429Z" fill="black"/>
<path d="M160.672 15.0159V6.24518H165.052V22.2226H160.989L152.832 13.4014V22.2478H148.452V6.2704H152.705L160.672 15.0159Z" fill="black"/>
<path d="M172.98 22.2478H168.377V6.27039H172.98V12.2913H174.249L179.804 6.27039H185.581L178.217 13.9395L185.866 22.2814H179.732L174.241 16.2268H172.972L172.98 22.2478Z" fill="black"/>
<path d="M205.315 14.2759C205.315 19.0523 201.602 22.7523 195.444 22.7523C189.286 22.7523 185.541 19.0523 185.541 14.2759C185.541 9.49953 189.255 5.7995 195.444 5.7995C201.633 5.7995 205.315 9.49953 205.315 14.2759ZM200.491 14.2759C200.491 11.6523 198.491 9.73498 195.444 9.73498C192.397 9.73498 190.397 11.6523 190.397 14.2759C190.397 16.8996 192.365 18.8505 195.444 18.8505C198.523 18.8505 200.491 16.8996 200.491 14.2759Z" fill="black"/>
<path d="M212.163 10.3068V13.1995H222.32V16.5632H212.163V22.2478H207.561V6.27039H222.701V10.3404L212.163 10.3068Z" fill="black"/>
<path d="M229.446 10.3068V13.1995H239.603V16.5632H229.446V22.2478H224.86V6.27039H240V10.3404L229.446 10.3068Z" fill="black"/>
<path d="M103.312 13.3074L106.592 11.1872C107.076 10.867 107.401 10.5586 107.565 10.2618C107.729 9.96506 107.811 9.63317 107.811 9.26614C107.811 8.8991 107.674 8.5594 107.401 8.24704C107.127 7.92686 106.745 7.76677 106.253 7.76677C105.901 7.76677 105.604 7.84877 105.362 8.01276C105.12 8.16894 104.937 8.37979 104.812 8.64531C104.695 8.91082 104.636 9.20757 104.636 9.53555C104.636 9.88697 104.73 10.2462 104.917 10.6132C105.105 10.9724 105.358 11.3551 105.679 11.7612C105.999 12.1594 106.354 12.5929 106.745 13.0614L114.792 22.4325H110.962L104.402 14.8419C103.847 14.1547 103.363 13.5261 102.949 12.956C102.535 12.3781 102.211 11.8158 101.977 11.2692C101.743 10.7226 101.626 10.1603 101.626 9.58241C101.626 8.69216 101.817 7.91514 102.2 7.25136C102.582 6.57977 103.121 6.06046 103.816 5.69343C104.511 5.31859 105.327 5.13116 106.264 5.13116C107.147 5.13116 107.912 5.31468 108.56 5.68171C109.208 6.04094 109.708 6.5173 110.06 7.1108C110.419 7.7043 110.598 8.35636 110.598 9.067C110.598 9.59803 110.501 10.09 110.306 10.5429C110.11 10.9881 109.841 11.402 109.497 11.7846C109.154 12.1594 108.759 12.507 108.314 12.8271L104.578 15.4862C104.289 15.7517 104.07 16.0133 103.922 16.271C103.773 16.5287 103.672 16.7747 103.617 17.009C103.562 17.2354 103.535 17.4541 103.535 17.6649C103.535 18.1179 103.633 18.5239 103.828 18.8832C104.023 19.2424 104.296 19.5235 104.648 19.7266C104.999 19.9296 105.409 20.0311 105.878 20.0311C106.518 20.0311 107.139 19.8906 107.74 19.6094C108.342 19.3283 108.88 18.9261 109.357 18.4029C109.833 17.8719 110.212 17.2432 110.493 16.517C110.774 15.7907 110.915 14.9903 110.915 14.1157H113.773C113.773 14.9903 113.687 15.822 113.515 16.6107C113.343 17.3916 113.066 18.1179 112.683 18.7895C112.301 19.4532 111.793 20.0428 111.161 20.5582C111.114 20.5973 111.047 20.6559 110.962 20.7339C110.883 20.8042 110.817 20.8589 110.762 20.8979C110.013 21.4993 109.232 21.9483 108.42 22.245C107.608 22.534 106.702 22.6784 105.702 22.6784C104.562 22.6784 103.574 22.4715 102.738 22.0576C101.911 21.6437 101.27 21.0736 100.817 20.3474C100.372 19.6211 100.15 18.7895 100.15 17.8524C100.15 17.1651 100.282 16.5677 100.548 16.0601C100.821 15.5447 101.196 15.0684 101.673 14.6311C102.149 14.1937 102.696 13.7525 103.312 13.3074Z" fill="black"/>
<defs>
<clipPath id="clip0_608_119">
<rect width="90.8398" height="21.9107" fill="white" transform="translate(0 0.521729)"/>
</clipPath>
</defs>
</svg>
